<?xml version="1.0" encoding="iso-8859-1"?>
<!-- Generator: Adobe Illustrator 19.0.0, SVG Export Plug-In . SVG Version: 6.00 Build 0)  -->
<svg version="1.1" id="Capa_1" xmlns="http://www.w3.org/2000/svg" xmlns:xlink="http://www.w3.org/1999/xlink" x="0px" y="0px"
	 viewBox="0 0 427.24 427.24" style="enable-background:new 0 0 427.24 427.24;" xml:space="preserve" fill="#E57474">
<g>
	<g>
		<path d="M232.66,144.96l-0.4-0.44c-4.932-4.966-11.641-7.759-18.64-7.76c-6.771,0.006-13.278,2.628-18.16,7.32l-0.44,0.4
			c-4.951,4.939-7.729,11.647-7.72,18.64v183.32c0.022,14.534,11.787,26.316,26.32,26.36c14.549-0.022,26.338-11.811,26.36-26.36
			V163.12C239.97,156.35,237.348,149.844,232.66,144.96z M225.62,346.44c-0.128,6.574-5.426,11.872-12,12
			c-6.574-0.128-11.872-5.426-12-12V163.12c-0.019-3.229,1.265-6.329,3.56-8.6l0.28-0.28c2.207-2.087,5.123-3.259,8.16-3.28
			c3.229-0.019,6.329,1.265,8.6,3.56l0.32,0.28c2.052,2.278,3.154,5.255,3.08,8.32V346.44z"/>
	</g>
</g>
<g>
	<g>
		<path d="M149.22,144.48c-4.926-4.945-11.62-7.723-18.6-7.72c-6.771,0.006-13.278,2.628-18.16,7.32l-0.44,0.4
			c-4.951,4.939-7.729,11.647-7.72,18.64v183.32c-0.003,6.98,2.775,13.674,7.72,18.6c4.922,4.956,11.615,7.748,18.6,7.76
			c6.98,0.003,13.674-2.775,18.6-7.72c4.945-4.926,7.723-11.62,7.72-18.6V163.12C156.949,156.127,154.171,149.419,149.22,144.48z
			 M142.94,346.44c0,6.627-5.373,12-12,12c-6.627,0-12-5.373-12-12l-0.32-183.32c-0.019-3.229,1.265-6.329,3.56-8.6l0.28-0.28
			c2.247-2.125,5.228-3.3,8.32-3.28c3.229-0.019,6.329,1.265,8.6,3.56c2.295,2.271,3.579,5.371,3.56,8.6V346.44z"/>
	</g>
</g>
<g>
	<g>
		<path d="M315.22,144.48c-4.929-4.941-11.621-7.719-18.6-7.72c-6.771,0.006-13.278,2.628-18.16,7.32l-0.44,0.4
			c-4.951,4.939-7.729,11.647-7.72,18.64v183.32c0.001,6.979,2.779,13.671,7.72,18.6c4.922,4.956,11.615,7.748,18.6,7.76
			c6.98,0.003,13.674-2.775,18.6-7.72c4.945-4.926,7.723-11.62,7.72-18.6V163.12C322.949,156.127,320.171,149.419,315.22,144.48z
			 M308.98,346.44c0,6.627-5.373,12-12,12c-6.627,0-12-5.373-12-12l-0.36-183.32c-0.008-3.235,1.29-6.336,3.6-8.6l0.28-0.28
			c2.247-2.125,5.228-3.3,8.32-3.28c3.229-0.019,6.329,1.265,8.6,3.56c2.295,2.271,3.579,5.371,3.56,8.6V346.44z"/>
	</g>
</g>
<g>
	<g>
		<path d="M397.9,46.24c-4.926-4.945-11.62-7.723-18.6-7.72h-84.56C291.172,16.358,272.068,0.048,249.62,0h-72
			c-22.432,0.067-41.514,16.373-45.08,38.52h-84.6c-14.533,0.044-26.298,11.826-26.32,26.36c0.006,6.771,2.628,13.278,7.32,18.16
			l0.4,0.44c4.939,4.951,11.647,7.729,18.64,7.72H379.3c6.98,0.003,13.674-2.775,18.6-7.72c4.945-4.926,7.723-11.62,7.72-18.6
			C405.629,57.887,402.851,51.179,397.9,46.24z M155.38,23.4c5.888-5.917,13.892-9.243,22.24-9.24h72
			c14.618,0.055,27.291,10.13,30.64,24.36H146.98C148.315,32.795,151.225,27.558,155.38,23.4z M379.26,77.04H47.94
			c-3.198,0.04-6.279-1.199-8.56-3.44l-0.28-0.28c-2.125-2.247-3.299-5.228-3.28-8.32l-0.04-0.12c0.128-6.574,5.426-11.872,12-12
			H379.1c3.229-0.019,6.329,1.265,8.6,3.56c2.295,2.271,3.579,5.371,3.56,8.6C391.26,71.667,385.887,77.04,379.26,77.04z"/>
	</g>
</g>
<g>
	<g>
		<path d="M360.7,105.4v287.4c-0.044,11.16-9.08,20.196-20.24,20.24H86.78c-11.16-0.044-20.196-9.08-20.24-20.24V105.4h-14.2v287.4
			c0.044,19.002,15.438,34.396,34.44,34.44h253.68c19.002-0.044,34.396-15.438,34.44-34.44V105.4H360.7z"/>
	</g>
</g>
<g>
</g>
<g>
</g>
<g>
</g>
<g>
</g>
<g>
</g>
<g>
</g>
<g>
</g>
<g>
</g>
<g>
</g>
<g>
</g>
<g>
</g>
<g>
</g>
<g>
</g>
<g>
</g>
<g>
</g>
</svg>
