<svg xmlns="http://www.w3.org/2000/svg" xmlns:xlink="http://www.w3.org/1999/xlink" width="53" height="53" viewBox="0 0 53 53">
  <defs>
    <linearGradient id="linear-gradient" x1="0.5" x2="0.5" y2="1" gradientUnits="objectBoundingBox">
      <stop offset="0" stop-color="#ffd86e"/>
      <stop offset="1" stop-color="#e57474"/>
    </linearGradient>
  </defs>
  <path id="Объединение_1" data-name="Объединение 1" d="M-3954-1117a3,3,0,0,1-3-3v-20h-20a3,3,0,0,1-3-3v-2a3,3,0,0,1,3-3h20v-19a3,3,0,0,1,3-3h2a3,3,0,0,1,3,3v19h19a3,3,0,0,1,3,3v2a3,3,0,0,1-3,3h-19v20a3,3,0,0,1-3,3Z" transform="translate(3980 1170)" fill="url(#linear-gradient)"/>
</svg>
