<?xml version="1.0" encoding="iso-8859-1"?>
<!-- Generator: Adobe Illustrator 19.0.0, SVG Export Plug-In . SVG Version: 6.00 Build 0)  -->
<svg version="1.1" id="Capa_1" xmlns="http://www.w3.org/2000/svg" xmlns:xlink="http://www.w3.org/1999/xlink" x="0px" y="0px"
	 viewBox="0 0 480.065 480.065" style="enable-background:new 0 0 480.065 480.065;" xml:space="preserve" fill="#929292">
<g>
	<g>
		<path d="M476.865,205.644l-232-176c-2.857-2.165-6.807-2.165-9.664,0l-232,176c-3.535,2.651-4.251,7.665-1.601,11.2
			c1.524,2.033,3.924,3.221,6.465,3.2h72v224c0,4.418,3.582,8,8,8h112c4.418,0,8-3.582,8-8v-104h64v104c0,4.418,3.582,8,8,8h112
			c4.418,0,8-3.582,8-8v-224h72c4.418,0,8-3.582,8-8C480.065,209.526,478.879,207.155,476.865,205.644z M392.065,204.044
			c-4.418,0-8,3.582-8,8v224h-96v-104c0-4.418-3.582-8-8-8h-80c-4.418,0-8,3.582-8,8v104h-96v-224c0-4.418-3.582-8-8-8H31.849
			l208.216-157.96l208.208,157.96H392.065z"/>
	</g>
</g>
<g>
</g>
<g>
</g>
<g>
</g>
<g>
</g>
<g>
</g>
<g>
</g>
<g>
</g>
<g>
</g>
<g>
</g>
<g>
</g>
<g>
</g>
<g>
</g>
<g>
</g>
<g>
</g>
<g>
</g>
</svg>
